@startuml
skinparam classAttributeIconSize 0
hide empty attributes
skinparam classBackgroundColor beige
skinparam ArrowColor #222222

class Name <<(V,#FF8B40)value object>> {}

class FirstName <<(V,#FF8B40)value object>> {}
class LastName <<(V,#FF8B40)value object>> {}
class FullName <<(V,#FF8B40)value object>> {}
class ContactInfo <<(V,#FF8B40)value object>> {}
class Email <<(V,#FF8B40)value object>> {}
class Slot <<(V,#FF8B40)value object>> {}
class Date <<(V,#FF8B40)value object>> {}
class TimeInterval <<(V,#FF8B40)value object>> {}
class Function <<(V,#FF8B40)value object>>  {}
class Status <<(V,#FF8B40)value object>> {}


package "<<aggregate Staff>>" {
    entity Staff <<entity>><<root>>{}
    class LicenseNumber <<(V,#FF8B40)value object>> <<identifier>> {}
}

package "<<aggregate Doctor>>" {
    entity Doctor <<entity>><<root>>{}
}

package "<<aggregate OperationType>>"{
    entity OperationType <<entity>> <<root>> {}
    class OperationTypeId <<(V,#FF8B40)value object>> <<identifier>> {}
    class OperationTypeName <<(V,#FF8B40)value object>>  {}
    class RequiredStaff <<entity>>  {}
    class NumberStaff <<(V,#FF8B40)value object>>  {}

    class EstimatedDuration <<(V,#FF8B40)value object>>  {}
    class Phase <<(V,#FF8B40)value object>>  {}
    class PhaseDuration <<(V,#FF8B40)value object>>  {}
    class PhaseDescription <<(V,#FF8B40)value object>> {}
    class OperationTypeStatus <<(V,#FF8B40)value object>> {}
}


package "<<aggregate Specialization>>"{
    entity Specialization <<entity>> <<root>> {}
    class SpecializationDenomination <<(V,#FF8B40)value object>> <<identifier>> {}
}

package "<<aggregate Room>>"{
    entity Room <<entity>> <<root>> {}
    class RoomNumber <<(V,#FF8B40)value object>> <<identifier>> {}
    class RoomType <<(V,#FF8B40)value object>>  {}
    class Capacity <<(V,#FF8B40)value object>>  {}
    class CurrentStatus <<(V,#FF8B40)value object>>  {}
    class AvailableEquipment <<(V,#FF8B40)value object>>  {}
}

package "<<aggregate>> User" {
    entity User <<entity>> <<root>>
    class Username <<(V,#FF8B40) value object>> <<identifier>>
    class Role <<(V,#FF8B40) value object>>
}


User ---> "0..1" Patient
User -> "1" Staff
User -> "1" Status
User --> Username
User ----> Email
User --> Role

Doctor -> "1" Staff : is a

Name --> FirstName
Name -> LastName
Name --> FullName

Room --> "1" RoomNumber
Room --> "1" RoomType
Room --> "1" Capacity
Room --> "1" CurrentStatus
Room --> "1" AvailableEquipment
Room --> "0..*" Slot

OperationType --> "1" OperationTypeId
OperationType --> "1" OperationTypeStatus
OperationType --> "1" OperationTypeName
OperationType --> "1..*" RequiredStaff
RequiredStaff --> "1" Specialization
RequiredStaff --> "1" Function
RequiredStaff --> "1" NumberStaff
OperationType ---> "1" EstimatedDuration
OperationType ---> "3" Phase
Phase --> "1" PhaseDuration
Phase --> "1" PhaseDescription


Staff --> "1" Status
Staff --> "1" Name
Staff --> "1" Function
Staff ---> "1" ContactInfo
Staff --> "1" LicenseNumber
Staff ---> "1..*" Slot
Staff --> "1" Specialization

Specialization --> "1" SpecializationDenomination : defined by
Slot --> "1" Date
Slot --> "1" TimeInterval

@enduml
