@startuml

'https://plantuml.com/class-diagram

skinparam classAttributeIconSize 0

hide empty attributes

skinparam classBackgroundColor beige

skinparam ArrowColor #222222

'SHARED VALUE OBJETS

    

    class Phone  <<(V,#FF8B40) value object>> {}

    

'AGGREGATES

package "<<aggregate>> Admin" {

    entity Admin <<entity>> <<root>>  {}

}

package "<<aggregate>> User"{

    entity User  <<entity>> <<root>> {}

    class Username <<(V,#FF8B40) value object>> {}

    class Role <<(V,#FF8B40) value object>> {}

    class Email <<(V,#FF8B40) value object>> {}

}

package "<<aggregate>> Name"{

    entity Name <<entity>> <<root>> {}

    class FirstName <<(V,#FF8B40) value object>> {}

    class LastName <<(V,#FF8B40) value object>> {}

    class FullName <<(V,#FF8B40) value object>> {}

}

package "<<aggregate>> Patient"{

    entity Patient <<entity>> <<root>> {}

    class MedicalRecordNumber <<(V,#FF8B40) value object>> {}

    class DateBirth <<(V,#FF8B40) value object>> {}

    class Gender <<(V,#FF8B40) value object>> {}

    class MedicalConditions <<(V,#FF8B40) value object>> {}

    class EmergencyContact <<(V,#FF8B40) value object>> {}

    class AppointmentHistory <<(V,#FF8B40) value object>> {}

}

package "<<aggregate>> Staff"{

    entity Staff <<entity>> <<root>> {}

    class LicenseNumber <<(V,#FF8B40) value object>> {}

    class Specialization <<(V,#FF8B40) value object>> {}

    class AvailabilitySlots <<(V,#FF8B40) value object>> {}

}

package "<<aggregate>> Appointment"{

    entity Appointment <<entity>> <<root>> {}

    class AppointmentId <<(V,#FF8B40) value object>> {}

    'class RequestID <<(V,#FF8B40) value object>> {}

    'class RoomID <<(V,#FF8B40) value object>> {}

    class DateTime <<(V,#FF8B40) value object>> {}

    class Status <<(V,#FF8B40) value object>> {}

}

package "<<aggregate>> SurgeryRoom" {

    entity SurgeryRoom <<entity>> <<root>> {}

    class RoomNumber <<(V,#FF8B40) value object>> {}

    class Type <<(V,#FF8B40) value object>> {}

    class AssignedEquipment <<(V,#FF8B40) value object>> {}

    class CurentStatus <<(V,#FF8B40) value object>> {}

    class MaintenanceSlots <<(V,#FF8B40) value object>> {}

}

package "<<aggregate>> OperationRequest" {

    entity OperationRequest <<entity>> <<root>> {}

    class OperationRequestId <<(V,#FF8B40) value object>> {}

    class PatientId <<(V,#FF8B40) value object>> {}

    class DoctorId <<(V,#FF8B40) value object>> {}

    class OperationTypeId <<(V,#FF8B40) value object>> {}

    class DeadlineDate <<(V,#FF8B40) value object>> {}

    class Priority <<(V,#FF8B40) value object>> {}

}

package "<<aggregate>> OperationType" {

    entity OperationType <<entity>> <<root>> {}

    class OperationTypeId <<(V,#FF8B40) value object>> {}

    class OperationTypeName <<(V,#FF8B40) value object>> {}

    class RequiredStaff <<(V,#FF8B40) value object>> {}

    class EstimatedDuration <<(V,#FF8B40) value object>> {}

}

'ASSOCIATIONS

User --> "1" Patient : is a <

User --> "1" Staff : is a <

'--

Staff --> "1" Phone : categorizes <

Patient --> "1" Phone : categorizes <

Staff --> "0..*" Appointment : schedule by <

Staff --> "0..*" Appointment : makes

Staff --> "1" Name : has

Patient --> "1" Name : has

Patient --> "0..*" OperationRequest : makes

Appointment --> "1" SurgeryRoom : schedule to a

OperationRequest --> "1" OperationType : has

User --> "1" Username : identified by

User --> "1" Email : categorizes <

User --> "1" Role : categorizes <

'--

Name --> "1" FirstName : categorizes <

Name --> "1" LastName :categorizes <

Name --> "1" FullName : categorizes <

'--

Patient --> "1" DateBirth : categorizes <

Patient --> "1" Gender : categorizes <

Patient --> "1" MedicalRecordNumber : categorizes <

Patient --> "1" MedicalConditions : categorizes <

Patient --> "1" EmergencyContact : categorizes <

Patient --> "1" AppointmentHistory : categorizes <

'--

Staff --> "1" LicenseNumber : categorizes <

Staff --> "1" Specialization : categorizes <

Staff --> "1..*" AvailabilitySlots : has <

'--

Appointment --> "1" AppointmentId : categorizes <

'Appointment --> "1" RequestID : categorizes <

'Appointment --> "1" RoomID : categorizes <

Appointment --> "1" DateTime : categorizes <

Appointment --> "1" Status : classified by

'--

SurgeryRoom --> "1" RoomNumber : categorizes <

SurgeryRoom --> "1" Type : categorizes <

SurgeryRoom --> "1..*" AssignedEquipment : includes

SurgeryRoom --> "1" CurentStatus : classified by

SurgeryRoom --> "1..*" MaintenanceSlots : includes

'--

OperationRequest --> "1" OperationRequestId : categorizes <

OperationRequest --> "1" PatientId : categorizes <

OperationRequest --> "1" DoctorId : categorizes <

OperationRequest --> "1" OperationTypeId : categorizes <

OperationRequest --> "1" DeadlineDate : has

OperationRequest --> "1" Priority : classified by

'--

OperationType --> "1" OperationTypeId : has

OperationType --> "1" OperationTypeName : has

OperationType --> "1..*" RequiredStaff : has

OperationType --> "1" EstimatedDuration : categorizes <

@enduml